<svg width="179" height="73" viewBox="0 0 179 73" fill="none" xmlns="http://www.w3.org/2000/svg">
<path d="M1.68863 26.0268C1.67984 26.0751 1.67105 26.1234 1.65347 26.1718C1.67105 26.1234 1.67984 26.0751 1.68863 26.0268ZM1.69742 25.9696C1.69742 26.0575 1.7106 26.3563 1.81606 26.7606C2.03577 27.5779 2.59822 28.3161 3.3716 28.7863L33.5641 47.0749C33.5157 46.7805 33.4937 46.4773 33.4937 46.1653C33.4937 43.2212 34.7768 41.1867 37.7825 39.3631L66.5292 21.9446C66.9071 21.7161 66.9467 21.3338 66.9467 21.18C66.9467 21.0262 66.9071 20.6483 66.5292 20.4154L35.994 1.91147L5.14246 20.6087C2.63338 22.1291 1.7062 23.5572 1.7062 25.873C1.7062 25.9037 1.70181 25.9345 1.69742 25.9696ZM37.4485 50.9198C36.8158 50.9198 36.205 50.7528 35.6381 50.4101C35.5239 50.3398 35.414 50.2651 35.3085 50.1816L2.51913 30.3243C1.35467 29.6168 0.524167 28.5183 0.181421 27.2352C0.0144423 26.598 -0.0207109 26.1586 0.0100476 25.8642C0.0144426 22.9201 1.29315 20.89 4.29438 19.0708L35.5722 0.118644C35.8315 -0.039548 36.1566 -0.039548 36.4159 0.118644L67.3729 18.8774C68.1683 19.3608 68.6384 20.222 68.6384 21.18C68.6384 22.1379 68.1683 23.0036 67.3729 23.4825L38.6305 40.9055C36.1215 42.4259 35.1899 43.8496 35.1899 46.1653C35.1899 47.2155 35.603 48.1822 36.2621 48.7139C36.2753 48.7227 36.2928 48.7359 36.3104 48.7491C36.3631 48.793 36.4247 48.8326 36.4862 48.8677C37.1585 49.2764 37.9538 49.2237 38.7887 48.7183L67.8651 31.0977L65.501 29.485C65.1099 29.2169 65.0001 28.6677 65.2549 28.2546C65.5098 27.846 66.0327 27.7273 66.4282 27.9998L69.9435 30.4034C70.1896 30.5704 70.3346 30.8604 70.3258 31.168C70.317 31.4756 70.1588 31.7612 69.904 31.915L39.6368 50.2563C38.9074 50.7001 38.1648 50.9198 37.4485 50.9198Z" fill="#BBA145"/>
<path d="M51.5978 62.1121C51.3034 62.1121 51.0178 61.954 50.864 61.6683C50.6311 61.2465 50.7673 60.7016 51.1716 60.4555L67.8651 50.3401L65.501 48.7275C65.1099 48.4594 65.0001 47.9101 65.2549 47.4971C65.5098 47.084 66.0327 46.9698 66.4282 47.2378L69.9435 49.6414C70.1896 49.8128 70.3346 50.1028 70.3258 50.4104C70.317 50.7224 70.1588 50.9992 69.904 51.1574L52.0196 61.9935C51.8834 62.077 51.7384 62.1121 51.5978 62.1121Z" fill="#BBA145"/>
<path d="M1.68863 45.269C1.67984 45.3173 1.67105 45.3656 1.65347 45.4096C1.67105 45.3656 1.67984 45.3173 1.68863 45.269ZM35.7787 69.5732C35.6337 69.5732 35.4887 69.5337 35.3525 69.4546L2.51913 49.5665C1.35467 48.859 0.524167 47.7605 0.181421 46.4774C0.0144423 45.8358 -0.0207109 45.4008 0.0100476 45.1064C0.0144426 42.1711 1.28876 40.141 4.2768 38.3262L5.70052 37.355C6.0916 37.087 6.61451 37.2012 6.87377 37.6143C7.12423 38.0274 7.01438 38.5766 6.6233 38.8447L5.182 39.829C5.16882 39.8378 5.15564 39.8422 5.14246 39.8509C2.63338 41.3713 1.7062 42.7994 1.7062 45.1108C1.7062 45.1459 1.70181 45.1767 1.69741 45.2118C1.69741 45.2953 1.7106 45.5985 1.81606 45.9984C2.03577 46.8201 2.59822 47.5583 3.3716 48.0241L36.205 67.9122C36.6092 68.1583 36.7454 68.7032 36.5125 69.125C36.3587 69.415 36.0687 69.5732 35.7787 69.5732Z" fill="#BBA145"/>
<path d="M45.8151 72.4824C45.6701 72.4824 45.5251 72.4428 45.3976 72.3681C45.134 72.2099 44.967 71.9155 44.967 71.5947V66.3085L39.6325 69.5031C38.2659 70.3292 36.8465 70.382 35.6381 69.6481C34.3199 68.8484 33.4938 67.2225 33.4938 65.4077C33.4938 62.4592 34.7769 60.4247 37.7825 58.6055L66.5293 41.1826C66.9072 40.9541 66.9467 40.5762 66.9467 40.4224C66.9467 40.2686 66.9072 39.8863 66.5293 39.6578C66.125 39.4117 65.9844 38.8669 66.2173 38.445C66.4502 38.0188 66.9687 37.8738 67.3729 38.1154C68.1683 38.5988 68.6385 39.4601 68.6385 40.4224C68.6385 41.3803 68.1683 42.2416 67.3729 42.7249L38.6306 60.1479C36.1215 61.6639 35.1899 63.092 35.1899 65.4077C35.1899 66.5722 35.6953 67.6312 36.4862 68.1102C37.1585 68.5188 37.9539 68.4661 38.7888 67.9608L45.3932 64.006C45.6569 63.8478 45.9777 63.8522 46.2413 64.0104C46.5006 64.1686 46.6631 64.463 46.6631 64.7794V70.026L50.7497 67.4554V61.2245C50.7497 59.9941 50.1126 58.8472 49.0931 58.2364C48.6889 57.9904 48.5483 57.4499 48.7768 57.0236C49.0096 56.5974 49.5282 56.448 49.9324 56.6897C51.4792 57.6168 52.4415 59.3569 52.4415 61.2245V67.9608C52.4415 68.2771 52.2877 68.5628 52.0284 68.721L46.2501 72.3549C46.1139 72.4384 45.9645 72.4824 45.8151 72.4824Z" fill="#BBA145"/>
<path d="M30.7078 35.8653C30.5672 35.8653 30.4266 35.8258 30.2991 35.7511L4.30754 20.6175C3.89888 20.3802 3.74948 19.8397 3.97798 19.4091C4.20208 18.9785 4.72059 18.8247 5.12925 19.062L31.1165 34.1955C31.5251 34.4328 31.6745 34.9733 31.446 35.4039C31.2922 35.6984 31.0022 35.8653 30.7078 35.8653Z" fill="#BBA145"/>
<path d="M19.8235 14.7909H52.1647L35.9941 4.99188L19.8235 14.7909Z" fill="#3A6351"/>
<path d="M98.2157 10.2498C96.8579 9.30502 94.9333 8.85681 92.3143 8.85681H85.1386V32.1943H88.1047V23.1291H92.3143C95.0167 23.1291 96.9897 22.5623 98.3475 21.389C99.9382 20.1587 100.72 18.1549 100.72 15.637C100.72 13.1148 99.8899 11.3263 98.2157 10.2498ZM96.4932 19.2666C95.5484 20.2246 94.0237 20.541 91.932 20.541H88.1047V11.423H91.932C93.9709 11.423 95.4474 11.6383 96.4405 12.4513C97.2226 13.0972 97.684 14.1606 97.684 15.7513C97.684 17.4079 97.2534 18.5196 96.4932 19.2666Z" fill="#304543"/>
<path d="M105.97 32.1943H108.936V8.85681H105.97V32.1943Z" fill="#304543"/>
<path d="M126.253 32.5107C130.863 32.5107 134.743 30.239 136.566 26.3106L133.829 25.1988C132.405 28.0814 129.589 29.6765 126.253 29.6765C121.415 29.6765 117.584 26.3589 117.584 20.5102C117.584 14.6923 121.415 11.3747 126.253 11.3747C129.589 11.3747 132.405 12.983 133.829 15.8656L136.566 14.7407C134.743 10.8298 130.863 8.54047 126.253 8.54047C119.675 8.54047 114.635 13.0665 114.635 20.5102C114.635 27.9847 119.675 32.5107 126.253 32.5107Z" fill="#304543"/>
<path d="M149.207 19.9785L158.374 8.85681H154.726L146.637 18.7174H144.615V8.85681H141.649V32.1943H144.615V21.4022H146.637L155.056 32.1943H158.87L149.207 19.9785Z" fill="#304543"/>
<path d="M96.212 53.8326C98.0839 52.9406 99.1121 51.0994 99.1121 48.8628C99.1121 45.2156 96.3745 42.6802 92.2133 42.6802H85.1386V66.0177H94.2214C98.2465 66.0177 100.817 63.3988 100.817 59.6857C100.817 56.4691 98.9627 54.5313 96.212 53.8326ZM96.3262 49.043C96.3262 51.1653 94.8849 52.9054 92.7449 52.9054H88.0036V45.2815H92.2001C94.7838 45.2815 96.3262 46.9206 96.3262 49.043ZM93.7249 63.3812H88.0036V55.3574H93.5095C96.3086 55.3574 97.9345 57.1151 97.9345 59.3869C97.9345 61.5444 96.3921 63.3812 93.7249 63.3812Z" fill="#304543"/>
<path d="M116.327 66.3341C122.843 66.3341 127.914 61.8081 127.914 54.3336C127.914 46.8898 122.843 42.3638 116.327 42.3638C109.749 42.3638 104.708 46.8898 104.708 54.3336C104.708 61.8081 109.749 66.3341 116.327 66.3341ZM116.327 63.5306C111.489 63.5306 107.657 60.2174 107.657 54.3336C107.657 48.5157 111.489 45.198 116.327 45.198C121.134 45.198 124.948 48.5157 124.948 54.3336C124.948 60.2174 121.134 63.5306 116.327 63.5306Z" fill="#304543"/>
<path d="M143.604 66.3341C150.121 66.3341 155.192 61.8081 155.192 54.3336C155.192 46.8898 150.121 42.3638 143.604 42.3638C137.026 42.3638 131.986 46.8898 131.986 54.3336C131.986 61.8081 137.026 66.3341 143.604 66.3341ZM143.604 63.5306C138.766 63.5306 134.935 60.2174 134.935 54.3336C134.935 48.5157 138.766 45.198 143.604 45.198C148.411 45.198 152.226 48.5157 152.226 54.3336C152.226 60.2174 148.411 63.5306 143.604 63.5306Z" fill="#304543"/>
<path d="M168.447 53.8019L177.614 42.6802H173.967L165.877 52.5407H163.856V42.6802H160.889V66.0177H163.856V55.2256H165.877L174.296 66.0177H178.11L168.447 53.8019Z" fill="#0A2E36"/>
</svg>
